<svg width="15" height="14" viewBox="0 0 15 14" fill="none" xmlns="http://www.w3.org/2000/svg">
<path fill-rule="evenodd" clip-rule="evenodd" d="M13.647 0.34974C13.9509 0.418408 14.1667 0.688433 14.1667 1.00002V10.3333C14.1667 10.7015 13.8682 11 13.5 11H4.16671C3.93566 11 3.72108 10.8804 3.59961 10.6838C3.47814 10.4873 3.46709 10.2419 3.57042 10.0352L6.23709 4.70187C6.33016 4.51572 6.50484 4.38372 6.70932 4.34499C6.91381 4.30626 7.12465 4.36526 7.27935 4.50449L9.9488 6.90699L12.8981 0.713393C13.0321 0.432078 13.343 0.281072 13.647 0.34974ZM1.50004 0.333348C1.86823 0.333348 2.16671 0.631825 2.16671 1.00002V12.3333H13.5C13.8682 12.3333 14.1667 12.6318 14.1667 13C14.1667 13.3682 13.8682 13.6667 13.5 13.6667H1.50004C1.13185 13.6667 0.833374 13.3682 0.833374 13V1.00002C0.833374 0.631825 1.13185 0.333348 1.50004 0.333348ZM12.8334 3.95064L10.7686 8.28664C10.6782 8.47658 10.5034 8.61268 10.2971 8.65382C10.0907 8.69495 9.8771 8.63628 9.72073 8.49554L7.03813 6.08121L5.2454 9.66668H12.8334V3.95064Z" fill="white"/>
</svg>
