<?xml version="1.0" encoding="utf-8"?>
<!-- Generator: Adobe Illustrator 27.0.0, SVG Export Plug-In . SVG Version: 6.00 Build 0)  -->
<svg version="1.1" id="圖層_1" xmlns="http://www.w3.org/2000/svg" xmlns:xlink="http://www.w3.org/1999/xlink" x="0px" y="0px"
	 viewBox="0 0 22 22" style="enable-background:new 0 0 22 22;" xml:space="preserve">
<style type="text/css">
	.st0{fill-rule:evenodd;clip-rule:evenodd;fill-opacity:0.85;}
</style>
<path class="st0" d="M0,2.5C0,1.1,1.1,0,2.5,0H20c0.3,0,0.6,0.1,0.7,0.3C21.5,0.8,22,1.6,22,2.5v17c0,0.9-0.5,1.7-1.3,2.2
	C20.6,21.9,20.3,22,20,22H2.5C1.1,22,0,20.9,0,19.5V2.5z M19.5,20H10V2h9.5C19.8,2,20,2.2,20,2.5v17C20,19.8,19.8,20,19.5,20z
	 M4.7,8.3c-0.4-0.4-1-0.4-1.4,0c-0.4,0.4-0.4,1,0,1.4L4.6,11l-1.3,1.3c-0.4,0.4-0.4,1,0,1.4c0.4,0.4,1,0.4,1.4,0l2-2
	c0.4-0.4,0.4-1,0-1.4L4.7,8.3z"/>
</svg>
